<svg xmlns="http://www.w3.org/2000/svg" width="1786" height="846" viewBox="0 0 1786 846">
  <defs>
    <style>
      .cls-1, .cls-3 {
        fill: #c73533;
      }

      .cls-1 {
        font-size: 400px;
        font-family: SegoeUI-Bold, Segoe UI;
        font-weight: 700;
      }

      .cls-2, .cls-4 {
        fill: #1a1f54;
      }

      .cls-4 {
        font-size: 200px;
        font-family: SegoeUI-Semibold, Segoe UI;
        font-weight: 600;
      }

      .cls-5, .cls-6 {
        stroke: none;
      }

      .cls-6 {
        fill: #707070;
      }
    </style>
  </defs>
  <g id="Group_1" data-name="Group 1" transform="translate(-166 159)">
    <g id="Component_1_1" data-name="Component 1 – 1" transform="translate(166 -159)">
      <text id="CaDeCa" class="cls-1"><tspan x="0" y="432">CaDeCa</tspan></text>
      <g id="Path_1" data-name="Path 1" class="cls-2" transform="translate(0 494)">
        <path class="cls-5" d="M 436.6258544921875 25.5 L 0.5000231266021729 25.5 L 0.5000231266021729 0.5 L 436.6258544921875 0.5 L 436.6258544921875 25.5 Z"/>
        <path class="cls-6" d="M 0.999969482421875 1 L 0.999969482421875 25 L 436.1257934570313 25 L 436.1257934570313 1 L 0.999969482421875 1 M -3.0517578125e-05 0 L 437.1257934570313 0 L 437.1257934570313 26 L -3.0517578125e-05 26 L -3.0517578125e-05 0 Z"/>
      </g>
      <g id="Path_2" data-name="Path 2" class="cls-3" transform="translate(437 494)">
        <path class="cls-5" d="M 685.0896606445313 25.5 L 0.4999969899654388 25.5 L 0.4999969899654388 0.5 L 685.0896606445313 0.5 L 685.0896606445313 25.5 Z"/>
        <path class="cls-6" d="M 1 1 L 1 25 L 684.5896606445313 25 L 684.5896606445313 1 L 1 1 M 0 0 L 685.5896606445313 0 L 685.5896606445313 26 L 0 26 L 0 0 Z"/>
      </g>
      <text id="Software" class="cls-4" transform="translate(22 531)"><tspan x="0" y="216">Software</tspan></text>
    </g>
  </g>
</svg>
